<?xml version="1.0" encoding="utf-8"?>
<!-- Generator: Adobe Illustrator 22.1.0, SVG Export Plug-In . SVG Version: 6.00 Build 0)  -->
<svg version="1.1" id="Layer_1" xmlns="http://www.w3.org/2000/svg" xmlns:xlink="http://www.w3.org/1999/xlink" x="0px" y="0px"
	 viewBox="0 0 666.3 156.5" style="enable-background:new 0 0 666.3 156.5;" xml:space="preserve">
<style type="text/css">
	.st0{fill:#FFFFFF;}
</style>
<path class="st0" d="M71.5,106.8c0-36.1,46.8-65.4,104.5-65.4c7.4,0,14.5,0.5,21.5,1.4c-14.3-5.3-30.9-8.4-48.5-8.4
	c-53.8,0-97.4,28.3-97.4,63.2c0,23.8,20.3,44.6,50.4,55.4C83.1,141.1,71.5,124.8,71.5,106.8z"/>
<path class="st0" d="M26.2,95.6C26.2,47.9,87.4,9.2,163,9.2c9.6,0,19,0.6,28.1,1.8C172.3,4,150.7,0,127.5,0C57.1,0,0,37.4,0,83.4
	c0,31.5,26.6,58.8,65.9,73.1C41.4,140.9,26.2,119.4,26.2,95.6z"/>
<path class="st0" d="M138.4,84.2c-5,0-9,1.8-11.9,5.4c-2.9,3.6-3.4,8.5-3.4,14.7c0,6.4,0.4,11.4,3.2,14.9c2.8,3.5,6.8,5.3,12,5.3
	c3.2,0,6.8-0.6,10.9-1.8v5c-3.2,1.3-7.1,1.9-11.7,1.9c-6.7,0-11.9-2.2-15.6-6.6c-3.7-4.4-4.5-10.6-4.5-18.7c0-5.1-0.1-9.5,1.6-13.3
	c1.8-3.8,4.3-6.7,7.6-8.8s7.2-3.1,11.7-3.1c4.8,0,9,0.9,12.6,2.8l-2.3,4.9C145.3,85.1,141.9,84.2,138.4,84.2z"/>
<path class="st0" d="M164.6,110.5v18.4h-5.3v-49H174c5.6,0,9.8,1.2,12.4,3.5c2.7,2.3,4,5.8,4,10.4c0,6.5-3.1,12.9-9.2,15.2l12.4,20
	h-6.3l-11.1-18.4H164.6z M164.6,105.6h9.5c3.8,0,6.5-0.8,8.3-2.4c1.8-1.6,2.6-6,2.6-9.2c0-3.2-0.9-5.6-2.7-7
	c-1.8-1.4-4.6-2.1-8.6-2.1h-9.1V105.6z"/>
<path class="st0" d="M227.3,128.9h-28.4v-49h28.4v5.1h-23.1v15.8h19v5h-19v18h23.1V128.9z"/>
<path class="st0" d="M266.5,115.8c0,4.3-1.5,7.7-4.4,10.1c-2.9,2.4-7.9,3.6-12.9,3.6c-5.4,0-9.6-0.7-12.5-2.2v-5.5
	c1.9,0.9,3.9,1.5,6.1,2c2.2,0.5,4.4,0.7,6.6,0.7c3.5,0,7.2-0.7,9-2.2c1.8-1.4,2.7-3.4,2.7-6c0-1.7-0.3-3.1-1-4.2
	c-0.6-1.1-2.7-2.1-4.2-3c-1.5-0.9-3.8-2-6.8-3.1c-4.3-1.6-8.3-3.6-10.1-5.8c-1.8-2.2-2.7-5.2-2.7-8.8c0-3.8,1.3-6.8,4-9
	c2.6-2.2,7.2-3.4,11.5-3.4c4.5,0,8.7,0.9,12.5,2.7l-1.7,5c-3.8-1.7-7.4-2.5-11-2.5c-2.8,0-6,0.6-7.6,1.9c-1.6,1.3-2.4,3.1-2.4,5.4
	c0,1.7,0.3,3.1,0.9,4.2s2.6,2.1,4,3c1.4,0.9,3.5,1.9,6.4,3c4.8,1.8,9.1,3.8,10.9,5.9S266.5,112.5,266.5,115.8z"/>
<path class="st0" d="M294.4,84.2c-5,0-9,1.8-11.9,5.4c-2.9,3.6-3.4,8.5-3.4,14.7c0,6.4,0.4,11.4,3.2,14.9c2.8,3.5,6.8,5.3,12,5.3
	c3.2,0,6.8-0.6,10.9-1.8v5c-3.2,1.3-7.1,1.9-11.7,1.9c-6.7,0-11.9-2.2-15.6-6.6c-3.7-4.4-4.5-10.6-4.5-18.7c0-5.1-0.1-9.5,1.6-13.3
	c1.8-3.8,4.3-6.7,7.6-8.8s7.2-3.1,11.7-3.1c4.8,0,9,0.9,12.6,2.8l-2.3,4.9C301.3,85.1,297.9,84.2,294.4,84.2z"/>
<path class="st0" d="M341,128.9h-28.4v-49H341v5.1H318v15.8h19v5h-19v18H341V128.9z"/>
<path class="st0" d="M384,128.9H378l-25-41.2h-0.2c0.3,4.8,0.5,9.3,0.5,13.3v27.9h-4.9v-49h6l24.9,41h0.2c0-0.6-0.1-2.5-0.3-5.8
	c-0.1-3.3-0.2-5.6-0.2-7V79.8h5V128.9z"/>
<path class="st0" d="M410.7,128.9h-5.3v-44h-14.5v-5.1h34.3v5.1h-14.5V128.9z"/>
<path class="st0" d="M465.9,82.2c-5.7,0-10.3,2-13.5,5.9c-3.3,3.9-3.9,9.3-3.9,16.2c0,7,0.6,12.4,3.7,16.3c3.1,3.9,7.6,5.8,13.3,5.8
	c3.8,0,7.4-0.5,10.6-1.6v3c-3,1.1-6.8,1.7-11.3,1.7c-6.4,0-11.5-2.2-15.2-6.7c-3.7-4.5-4.5-10.7-4.5-18.7c0-5-0.1-9.4,1.6-13.2
	c1.8-3.8,4.3-6.7,7.6-8.8c3.3-2.1,7.1-3.1,11.5-3.1c4.5,0,8.5,0.9,12,2.7l-1.3,3.1C473,83.1,469.5,82.2,465.9,82.2z"/>
<path class="st0" d="M552.8,93.9c0,4.7-1.5,10.4-4.5,12.9s-9.3,3.8-14.8,3.8h-7.1v18.3h-3.2v-49h11.2
	C545.4,79.8,552.8,84.5,552.8,93.9z M526.5,107.7h6.3c5.2,0,10.9-0.9,13.2-2.7c2.3-1.8,3.4-6.8,3.4-10.9c0-3.8-1.1-6.6-3.3-8.4
	c-2.2-1.8-7.5-2.7-12.1-2.7h-7.6V107.7z"/>
<path class="st0" d="M559.5,128.9v-49h3.2v49H559.5z"/>
<path class="st0" d="M588.9,128.9h-3.2V83.1h-14.9v-3.2h32.9v3.2h-14.9V128.9z"/>
<path class="st0" d="M641.3,128.9v-49h3.2v45.8h21.8v3.2H641.3z"/>
<g>
	<path class="st0" d="M498.1,79.6l-18.4,49.2h3.5l4.7-12.6h22l4.6,12.6h3.6l-18-49.2H498.1z M507.1,108.5l1.1,3.1l0.7,1.8h-19.9
		l0.7-1.8l1.2-3.1l6.4-17.6c0.7-1.7,1.3-3.7,1.8-5.8c0.7,2.5,1.4,4.4,1.9,5.8L507.1,108.5z"/>
	<path class="st0" d="M633.8,128.9h3.6l-18-49.2h-2l-18.4,49.2h3.5l4.7-12.6h22L633.8,128.9z M608.2,113.4l0.7-1.8l1.2-3.1l6.4-17.6
		c0.7-1.7,1.3-3.7,1.8-5.8c0.7,2.5,1.4,4.4,1.9,5.8l6.2,17.7l1.1,3.1l0.7,1.8H608.2z"/>
</g>
</svg>
