<svg id="Group_413" data-name="Group 413" xmlns="http://www.w3.org/2000/svg" viewBox="0 0 272.695 20.087">
  <defs>
    <style>
      .cls-1 {
        fill: #fff;
      }
    </style>
  </defs>
  <path id="Path_21449" data-name="Path 21449" class="cls-1" d="M0,.5H11.995V2.523H2.312V8.448h9.1v2.023h-9.1v6.792H12.428v2.023H0Z" transform="translate(0 0.223)"/>
  <path id="Path_21450" data-name="Path 21450" class="cls-1" d="M9.5.5h2.6l5.781,15.607h0L23.951.5h2.457l-7.37,18.931H16.87Z" transform="translate(4.229 0.223)"/>
  <path id="Path_21451" data-name="Path 21451" class="cls-1" d="M23,.5H34.995V2.523H25.312V8.448h9.1v2.023h-9.1v6.792H35.428v2.023H23Z" transform="translate(10.238 0.223)"/>
  <path id="Path_21452" data-name="Path 21452" class="cls-1" d="M34,.5h4.913a17.489,17.489,0,0,1,2.746.145,6.93,6.93,0,0,1,2.457.723,4.594,4.594,0,0,1,1.734,1.59A5.141,5.141,0,0,1,46.573,5.7a4.353,4.353,0,0,1-1.3,3.324,5.563,5.563,0,0,1-3.468,1.59l5.347,8.671H44.4L39.2,10.76h-2.89v8.526H34V.5Zm2.312,8.382h3.9a8.458,8.458,0,0,0,1.879-.289,3,3,0,0,0,1.445-.867,2.452,2.452,0,0,0,.578-1.879,2.6,2.6,0,0,0-.434-1.59,3.376,3.376,0,0,0-1.012-1.012,2.441,2.441,0,0,0-1.445-.434c-.578,0-1.156-.145-1.59-.145H36.457l-.145,6.214Z" transform="translate(15.134 0.223)"/>
  <path id="Path_21453" data-name="Path 21453" class="cls-1" d="M45.4.5h3.324l6.5,14.885h0L61.73.5h3.324V19.431H62.742V3.535h0l-6.792,15.9h-1.3l-6.792-15.9h0v15.9H45.545V.5Z" transform="translate(20.209 0.223)"/>
  <path id="Path_21454" data-name="Path 21454" class="cls-1" d="M71.371,20.043a12.537,12.537,0,0,1-4.046-.723A8.016,8.016,0,0,1,64.146,17.3a8.016,8.016,0,0,1-2.023-3.179,11.864,11.864,0,0,1-.723-4.046,12.537,12.537,0,0,1,.723-4.046,9.185,9.185,0,0,1,2.023-3.179A8.016,8.016,0,0,1,67.325.823a11.691,11.691,0,0,1,8.093,0A9.184,9.184,0,0,1,78.6,2.846,8.016,8.016,0,0,1,80.62,6.025a11.865,11.865,0,0,1,.723,4.046,12.537,12.537,0,0,1-.723,4.046A9.185,9.185,0,0,1,78.6,17.3a8.016,8.016,0,0,1-3.179,2.023A9.585,9.585,0,0,1,71.371,20.043Zm0-2.023a6.7,6.7,0,0,0,3.035-.578,6.956,6.956,0,0,0,2.312-1.734,14.317,14.317,0,0,0,1.59-2.457,7.107,7.107,0,0,0,.578-3.035,7.107,7.107,0,0,0-.578-3.035,8.946,8.946,0,0,0-1.59-2.457A8.816,8.816,0,0,0,74.406,2.99a8.255,8.255,0,0,0-6.07,0,6.956,6.956,0,0,0-2.312,1.734,8.946,8.946,0,0,0-1.59,2.457,7.107,7.107,0,0,0-.578,3.035,7.107,7.107,0,0,0,.578,3.035,8.946,8.946,0,0,0,1.59,2.457,8.816,8.816,0,0,0,2.312,1.734A6.7,6.7,0,0,0,71.371,18.02Z" transform="translate(27.331 0.045)"/>
  <path id="Path_21455" data-name="Path 21455" class="cls-1" d="M78.1.5h4.913a17.489,17.489,0,0,1,2.746.145,6.93,6.93,0,0,1,2.457.723,4.594,4.594,0,0,1,1.734,1.59A5.141,5.141,0,0,1,90.673,5.7a4.353,4.353,0,0,1-1.3,3.324,5.563,5.563,0,0,1-3.468,1.59l5.347,8.671H88.5L83.3,10.76h-2.89v8.526H78.1V.5Zm2.168,8.382h3.9a8.458,8.458,0,0,0,1.879-.289,3,3,0,0,0,1.445-.867,2.452,2.452,0,0,0,.578-1.879,2.6,2.6,0,0,0-.434-1.59,3.376,3.376,0,0,0-1.012-1.012,2.441,2.441,0,0,0-1.445-.434c-.578,0-1.156-.145-1.59-.145H80.412l-.145,6.214Z" transform="translate(34.764 0.223)"/>
  <path id="Path_21456" data-name="Path 21456" class="cls-1" d="M89.4.5h11.995V2.523H91.712V8.448h9.1v2.023h-9.1v6.792h10.116v2.023H89.4Z" transform="translate(39.794 0.223)"/>
  <path id="Path_21457" data-name="Path 21457" class="cls-1" d="M107.134.4V19.476H105.4V.4Z" transform="translate(46.916 0.178)"/>
  <path id="Path_21458" data-name="Path 21458" class="cls-1" d="M114.7.5h12.573V3.535h-9.249V8.159h8.671v3.035h-8.671v5.2h9.682v3.035H114.7Z" transform="translate(51.056 0.223)"/>
  <path id="Path_21459" data-name="Path 21459" class="cls-1" d="M126,.5h4.48l9.249,14.162h0V.5h3.324V19.431h-4.335l-9.393-14.6h0v14.6H126Z" transform="translate(56.086 0.223)"/>
  <path id="Path_21460" data-name="Path 21460" class="cls-1" d="M140.8.5h12.573V3.535h-9.249V8.159h8.671v3.035h-8.671v5.2h9.682v3.035H140.8Z" transform="translate(62.674 0.223)"/>
  <path id="Path_21461" data-name="Path 21461" class="cls-1" d="M152.1.5h6.648a15.924,15.924,0,0,1,2.6.289,6.385,6.385,0,0,1,2.312.867,4.594,4.594,0,0,1,1.59,1.734,4.949,4.949,0,0,1,.578,2.6,5.273,5.273,0,0,1-1.156,3.468,5.663,5.663,0,0,1-3.324,1.734l5.058,8.382H162.36l-4.335-8.093h-2.457v8.093h-3.324L152.1.5Zm6.07,7.948h1.445a4.219,4.219,0,0,0,1.3-.289,2.592,2.592,0,0,0,1.012-.723,2.157,2.157,0,0,0,.434-1.445,2.885,2.885,0,0,0-.289-1.3,3.831,3.831,0,0,0-.867-.723,3.451,3.451,0,0,0-1.3-.289c-.434,0-.867-.145-1.3-.145h-2.89v5.2h2.457Z" transform="translate(67.704 0.223)"/>
  <path id="Path_21462" data-name="Path 21462" class="cls-1" d="M180.975,18.209a15.6,15.6,0,0,1-7.8,1.879,12.537,12.537,0,0,1-4.046-.723,8.016,8.016,0,0,1-3.179-2.023,8.016,8.016,0,0,1-2.023-3.179,11.864,11.864,0,0,1-.723-4.046,12.728,12.728,0,0,1,.723-4.191,8.016,8.016,0,0,1,2.023-3.179A8.016,8.016,0,0,1,169.125.723a12.92,12.92,0,0,1,8.093-.145,8.15,8.15,0,0,1,3.468,1.879l-2.457,2.457a5.442,5.442,0,0,0-2.168-1.3,8.414,8.414,0,0,0-2.746-.434,4.949,4.949,0,0,0-2.6.578A5.184,5.184,0,0,0,168.691,5.2a5.442,5.442,0,0,0-1.3,2.168,8.183,8.183,0,0,0-.434,2.6,7.822,7.822,0,0,0,.434,2.746,6.671,6.671,0,0,0,1.3,2.168,6.514,6.514,0,0,0,2.023,1.445,7.605,7.605,0,0,0,2.6.578,12.727,12.727,0,0,0,2.457-.289A8.356,8.356,0,0,0,177.8,15.9v-4.48h-3.9V8.382h7.226v9.827Z" transform="translate(72.645)"/>
  <path id="Path_21463" data-name="Path 21463" class="cls-1" d="M183.581,11.338,176.5.5h4.191l4.624,7.515L190.084.5h4.046l-7.081,10.838v8.093h-3.324V11.338Z" transform="translate(78.565 0.223)"/>
</svg>
